<svg xmlns="http://www.w3.org/2000/svg" width="1408" height="768" viewBox="0 0 1408 768" style="fill-rule:evenodd">
<defs>
  <radialGradient id="radgrad_275" cx="-576.408" cy="-56.2225" fx="-576.214" fy="-56.0166" r="1.93997" gradientUnits="userSpaceOnUse" gradientTransform="matrix(-0.992558 -0.121776 0.593495 -4.83737 0 0)">
    <stop offset="0" stop-color="rgb(151,200,162)"/>
    <stop offset="0.152605" stop-color="rgb(151,200,162)"/>
    <stop offset="1" stop-color="rgb(200,232,206)"/>
  </radialGradient>
  <linearGradient id="grad_272" x1="470.235" y1="-94.8729" x2="492.748" y2="-99.4151" gradientUnits="userSpaceOnUse">
    <stop offset="0" stop-color="rgb(103,190,121)"/>
    <stop offset="0.428571" stop-color="rgb(100,188,121)"/>
    <stop offset="0.571429" stop-color="rgb(77,181,105)"/>
    <stop offset="0.714286" stop-color="rgb(77,180,102)"/>
    <stop offset="1" stop-color="rgb(74,179,103)"/>
  </linearGradient>
  <radialGradient id="radgrad_271" cx="507.667" cy="457.237" fx="543.233" fy="446.171" r="49.4357" gradientUnits="userSpaceOnUse" gradientTransform="matrix(1 -0 -0 1 0 0)">
    <stop offset="0" stop-color="rgb(57,174,89)"/>
    <stop offset="0.00695503" stop-color="rgb(57,174,89)"/>
    <stop offset="0.148819" stop-color="rgb(70,179,96)"/>
    <stop offset="0.432546" stop-color="rgb(75,181,103)"/>
    <stop offset="0.858136" stop-color="rgb(77,180,102)"/>
    <stop offset="1" stop-color="rgb(78,179,103)"/>
  </radialGradient>
  <linearGradient id="grad_46" x1="614.139" y1="666.268" x2="610.729" y2="662.568" gradientUnits="userSpaceOnUse">
    <stop offset="0" stop-color="rgb(224,224,222)"/>
    <stop offset="0.666667" stop-color="rgb(216,217,215)"/>
    <stop offset="1" stop-color="rgb(218,217,211)"/>
  </linearGradient>
  <linearGradient id="grad_115" x1="715.38" y1="430.378" x2="719.493" y2="432.852" gradientUnits="userSpaceOnUse">
    <stop offset="0" stop-color="rgb(61,170,92)"/>
    <stop offset="0.5" stop-color="rgb(70,171,96)"/>
    <stop offset="1" stop-color="rgb(76,170,98)"/>
  </linearGradient>
  <linearGradient id="grad_22" x1="478.834" y1="400.274" x2="482.365" y2="403.227" gradientUnits="userSpaceOnUse">
    <stop offset="0" stop-color="rgb(185,221,195)"/>
    <stop offset="0.25" stop-color="rgb(179,220,191)"/>
    <stop offset="0.5" stop-color="rgb(179,220,191)"/>
    <stop offset="0.75" stop-color="rgb(184,220,194)"/>
    <stop offset="1" stop-color="rgb(195,224,201)"/>
  </linearGradient>
  <linearGradient id="grad_53" x1="240.192" y1="-203.609" x2="243.734" y2="-206.611" gradientUnits="userSpaceOnUse">
    <stop offset="0" stop-color="rgb(196,228,205)"/>
    <stop offset="0.25" stop-color="rgb(191,227,199)"/>
    <stop offset="0.5" stop-color="rgb(190,227,200)"/>
    <stop offset="0.75" stop-color="rgb(196,228,205)"/>
    <stop offset="1" stop-color="rgb(205,232,209)"/>
  </linearGradient>
  <linearGradient id="grad_127" x1="-78.7005" y1="153.954" x2="-65.6134" y2="128.353" gradientUnits="userSpaceOnUse">
    <stop offset="0" stop-color="rgb(185,223,194)"/>
    <stop offset="0.25" stop-color="rgb(184,222,193)"/>
    <stop offset="0.5" stop-color="rgb(185,221,195)"/>
    <stop offset="0.75" stop-color="rgb(199,215,207)"/>
    <stop offset="1" stop-color="rgb(212,215,217)"/>
  </linearGradient>
  <linearGradient id="grad_10" x1="392.12" y1="442.676" x2="389.085" y2="439.25" gradientUnits="userSpaceOnUse">
    <stop offset="0" stop-color="rgb(162,211,176)"/>
    <stop offset="0.5" stop-color="rgb(159,212,173)"/>
    <stop offset="0.75" stop-color="rgb(165,212,177)"/>
    <stop offset="1" stop-color="rgb(175,216,183)"/>
  </linearGradient>
</defs>
<path d="M 0 768 C 0 512, 0 256, 0 0 C 469.333 0, 938.667 0, 1408 0 C 1408 256, 1408 512, 1408 768 C 938.667 768, 469.333 768, 0 768 Z M 439.548 439.04 C 437.636 437.453, 434.66 438.482, 430.434 442.192 C 426.583 445.573, 426.131 447.465, 428.83 448.909 C 430.891 450.012, 434.96 448.31, 438.75 444.759 C 441.361 442.313, 441.582 440.728, 439.548 439.04 Z M 502.327 440 C 500.688 435.586, 493.196 434.454, 490.557 438.223 C 487.024 443.267, 489.884 449, 495.934 449 C 498.036 449, 500.224 448.435, 500.797 447.744 C 502.188 446.069, 503.018 441.863, 502.327 440 Z M 514.171 347.655 C 509.38 343.319, 502.165 348.646, 505.15 354.315 C 506.594 357.06, 507.938 357.965, 510.595 357.985 C 515.335 358.019, 517.79 350.93, 514.171 347.655 Z M 541.338 309.25 C 540.439 307.022, 536.156 307.924, 532.535 311.104 C 528.87 314.321, 528.137 316.737, 530.2 318.8 C 532.128 320.728, 533.742 320.228, 537.997 316.384 C 541.897 312.861, 542.379 311.831, 541.338 309.25 Z M 544.961 193.189 C 542.407 190.447, 536.982 190.258, 534.655 192.829 C 532.458 195.256, 532.55 200.283, 534.829 202.345 C 537.3 204.582, 543.253 204.483, 545.345 202.171 C 547.592 199.689, 547.427 195.836, 544.961 193.189 Z M 545 396 C 540.674 391.674, 534 394.976, 534 401.443 C 534 407.341, 540.83 410.17, 545 406 C 546.111 404.889, 547 402.667, 547 401 C 547 399.333, 546.111 397.111, 545 396 Z M 549.429 222.571 C 545.378 218.521, 539.035 222.099, 538.968 228.473 C 538.951 230.138, 538.276 232.374, 537.468 233.441 C 532.896 239.487, 539.19 247.821, 546.151 244.938 C 549.541 243.533, 550.399 241.149, 549.551 235.49 C 549.157 232.861, 549.313 230.924, 549.952 230.53 C 551.545 229.545, 551.203 224.346, 549.429 222.571 Z M 556 381 C 547.363 381, 544 382.9, 544 387.777 C 544 392.549, 546.519 395, 551.425 395 C 552.862 395, 554.299 395, 555.736 395 C 556.275 398.734, 556.814 402.468, 557.353 406.202 C 558.95 417.265, 558.944 417.43, 556.903 419.604 C 554.986 421.644, 554.539 426.024, 556.25 426.007 C 556.5 426.005, 556.75 426.002, 557 426 C 562.095 425.518, 562.47 426.035, 564.732 432.76 C 567.898 442.173, 575.128 456.305, 582.252 467.003 C 588.263 476.031, 603.885 493.684, 609.274 497.539 C 620.644 505.674, 632.28 513.205, 637.078 515.537 C 641.443 517.658, 642.857 518.928, 643.578 521.372 C 644.616 524.888, 647.098 525.821, 650.531 523.984 C 652.41 522.978, 653.972 523.155, 659.649 525.018 C 663.417 526.255, 667.062 527.656, 667.75 528.133 C 668.167 528.422, 668.583 528.711, 669 529 C 669 530.688, 670.042 530.897, 671.5 530.566 C 672.333 530.378, 673.167 530.189, 674 530 C 683.667 530.667, 693.333 531.333, 703 532 C 702.134 533.55, 700.96 534, 699.834 534 C 698.369 534, 697.96 534.455, 698.399 535.598 C 698.763 536.547, 697.995 538.406, 696.506 540.175 C 695.063 541.89, 694 544.412, 694 546.122 C 694 549.837, 697.963 554, 701.5 554 C 704.824 554, 709 549.838, 709 546.524 C 709 544.714, 709.786 543.599, 711.663 542.744 C 714.059 541.652, 714.21 541.284, 713.166 539.072 C 711.632 535.822, 712.936 535.035, 719.888 535.015 C 724.838 535.001, 725.648 535.342, 729.842 539.208 C 733.496 542.577, 735.165 543.425, 738.201 543.458 C 741.742 543.497, 741.994 543.304, 741.997 540.555 C 741.999 538.734, 740.997 536.562, 739.373 534.867 C 738.497 533.953, 737.621 533.039, 736.746 532.125 C 737.871 531.439, 738.997 530.753, 740.123 530.066 C 741.98 528.934, 744.486 528.006, 745.691 528.004 C 746.896 528.002, 748.16 527.55, 748.5 527 C 748.84 526.45, 750.329 525.963, 751.809 525.917 C 753.289 525.871, 754.5 525.71, 754.5 525.56 C 754.5 525.317, 762.985 521.378, 765.467 520.469 C 767.286 519.803, 769.128 522.141, 767.926 523.589 C 767.322 524.317, 767.092 525.382, 767.414 525.956 C 767.609 526.304, 767.805 526.652, 768 527 C 768 533.001, 770.133 536, 774.402 536 C 776.317 536, 778.381 535.237, 779.345 534.171 C 781.415 531.884, 781.511 525.628, 779.5 524.122 C 779 523.748, 778.5 523.374, 778 523 C 778.762 521.62, 777.847 520.475, 776.46 519.565 C 773.429 517.58, 773.877 516.668, 779.695 512.978 C 782.146 511.424, 784.132 510.132, 784.108 510.108 C 784.084 510.084, 784.785 509.66, 785.667 509.167 C 786.548 508.673, 787.252 508.252, 787.231 508.231 C 787.21 508.21, 787.868 507.587, 788.693 506.847 C 789.517 506.106, 790.149 505.163, 790.096 504.75 C 790.064 504.5, 790.032 504.25, 790 504 C 805.365 491.982, 818.532 478.442, 826.258 466.715 C 828.172 463.81, 830.086 460.905, 832 458 C 838.015 465.417, 843.357 462.447, 845.235 450.642 C 846.129 445.021, 846.121 443.206, 845.197 442.681 C 844.798 442.454, 844.399 442.227, 844 442 C 843 441.667, 842 441.333, 841 441 C 847.303 420.366, 849.408 411.569, 850.57 401 C 851.131 395.9, 851.9 393.792, 854.142 391.215 C 857.7 387.126, 857.7 386.156, 854.147 381.685 C 851.658 378.553, 851.207 376.937, 850.608 369.011 C 850.231 364.015, 849.49 358.818, 848.961 357.463 C 848.641 356.642, 848.32 355.821, 848 355 C 852.214 354.134, 853.589 354.936, 856.38 358.011 C 857.586 359.341, 858.793 360.67, 860 362 C 860.667 362, 861.333 362, 862 362 C 869.606 364.208, 870.375 364.112, 872.783 362.322 C 876.263 359.735, 876.689 356.146, 873.932 352.641 C 870.864 348.741, 866.205 349.249, 863.763 353.75 C 863.175 354.833, 862.588 355.917, 862 357 C 853.055 347.385, 852.042 346.777, 849.704 347.345 C 848.802 347.563, 847.901 347.781, 847 348 C 839.047 321.176, 829.371 303.177, 812.998 284.75 C 810.998 282.5, 808.999 280.25, 807 278 C 807 271.506, 804.686 265.724, 802.269 266.179 C 801.296 266.362, 800.162 267.522, 799.75 268.756 C 799.5 269.504, 799.25 270.252, 799 271 C 777.166 255.209, 768.056 250.158, 751.5 244.666 C 731.48 238.025, 707.777 235.524, 687.399 237.901 C 675.843 239.249, 658.256 243.628, 649.189 247.415 C 647.126 248.277, 645.063 249.138, 643 250 C 644.153 240.818, 643.972 239.927, 642.481 239.354 C 639.658 238.271, 637.766 241.73, 638.434 246.75 C 638.623 248.167, 638.811 249.583, 639 251 C 620.169 262.94, 616.552 265.464, 607.905 272.697 C 596.055 282.611, 586.119 294.469, 578.042 308.341 C 576.361 311.227, 574.681 314.114, 573 317 C 571.865 312.005, 569.135 309, 565.73 309 C 563.007 309, 559 313.85, 559 317.146 C 559 320.557, 562.125 323.993, 565.25 324.019 C 566 324.025, 566.75 324.031, 567.5 324.037 C 566.515 327.031, 565.529 330.025, 564.544 333.019 C 562.917 337.958, 561.905 342, 562.294 342 C 562.529 342, 562.765 342, 563 342 C 559.864 353.625, 558.739 357, 558.477 357 C 558.318 357, 558.159 357, 558 357 C 551.766 357.035, 549.429 358.069, 550.323 360.399 C 550.726 361.449, 552.153 362, 554.469 362 C 555.646 362, 556.823 362, 558 362 C 557.667 368, 557.333 374, 557 380 C 557 380.333, 557 380.667, 557 381 C 556.667 381.333, 556.333 381.667, 556 382 C 556 381.667, 556 381.333, 556 381 Z M 553.777 471.557 C 548.989 468.203, 543.667 471.15, 543.667 477.154 C 543.667 480.769, 546.097 483, 550.036 483 C 555.634 483, 558.332 474.747, 553.777 471.557 Z M 558.171 302.655 C 555.744 300.458, 550.717 300.55, 548.655 302.829 C 546.458 305.256, 546.55 310.283, 548.829 312.345 C 551.256 314.542, 556.283 314.45, 558.345 312.171 C 560.542 309.744, 560.45 304.717, 558.171 302.655 Z M 560.75 571.746 C 557.077 566.937, 549 570.149, 549 576.418 C 549 578.318, 549.767 580.384, 550.829 581.345 C 553.256 583.542, 558.283 583.45, 560.345 581.171 C 562.302 579.009, 562.515 574.056, 560.75 571.746 Z M 568.686 457.174 C 564.257 453.014, 557 455.728, 557 461.545 C 557 464.623, 561.11 469, 564 469 C 566.819 469, 571 464.651, 571 461.72 C 571 460.416, 569.958 458.37, 568.686 457.174 Z M 574.8 291.2 C 572.691 289.091, 570.229 289.9, 567.04 293.75 C 563.579 297.928, 563.246 302.245, 566.339 302.832 C 568.451 303.233, 572.539 299.75, 574.595 295.8 C 576.292 292.537, 576.286 292.686, 574.8 291.2 Z M 579.541 500.211 C 578.188 499.147, 575.721 497.713, 574.059 497.024 C 567.066 494.128, 565.725 499.878, 572.5 503.707 C 577.199 506.362, 580.544 506.63, 581.393 504.418 C 582.229 502.239, 582.287 502.371, 579.541 500.211 Z M 587.483 263.625 C 583.896 260.039, 578 262.949, 578 268.306 C 578 270.012, 578.871 271.524, 580.447 272.557 C 582.55 273.935, 583.286 273.973, 585.697 272.823 C 589.078 271.21, 590.052 266.195, 587.483 263.625 Z M 603.306 571 C 602.467 568.653, 599.861 567, 597 567 C 593.378 567, 591.139 568.928, 590.402 572.684 C 589.896 575.259, 590.267 576.358, 592.343 578.434 C 595.565 581.656, 598.4 581.69, 601.545 578.545 C 603.929 576.162, 604.411 574.093, 603.306 571 Z M 601 518 C 600 518.667, 599 519.333, 598 520 C 599.166 523.497, 600.482 524.64, 601.703 524.813 C 602.914 524.986, 604.167 525.95, 604.486 526.956 C 604.805 527.962, 606.387 529.332, 608 530 C 609.614 530.668, 611.454 531.842, 612.089 532.608 C 613.726 534.58, 618.388 534.334, 620.345 532.171 C 623.514 528.669, 622.466 525.322, 617 521.498 C 615.333 520.332, 613.667 519.166, 612 518 C 610.984 514.749, 608.089 514.237, 603.75 516.54 C 602.833 517.027, 601.917 517.513, 601 518 Z M 627.443 175.223 C 625.254 172.098, 618.746 172.098, 616.557 175.223 C 614.168 178.632, 614.603 182.542, 617.635 184.927 C 621.095 187.649, 623.547 187.544, 626.545 184.545 C 629.364 181.727, 629.682 178.419, 627.443 175.223 Z M 663.293 225.016 C 660.127 222.526, 656.449 222.964, 653.75 226.153 C 649.862 230.748, 652.955 237.333, 659 237.333 C 665.785 237.333, 668.618 229.204, 663.293 225.016 Z M 664.066 196.035 C 661.182 194.492, 658.511 194.778, 656.655 196.829 C 651.968 202.007, 659.493 209.364, 664.429 204.429 C 666.659 202.199, 666.447 197.31, 664.066 196.035 Z M 677.594 556.563 C 676.222 552.205, 674.124 550.355, 671.636 551.309 C 669.443 552.151, 669.573 555.839, 671.995 561.487 C 673.629 565.3, 674.396 566.083, 676.245 565.82 C 678.964 565.434, 679.414 562.346, 677.594 556.563 Z M 758.686 563.174 C 754.106 558.872, 747 561.763, 747 567.927 C 747 571.165, 750.893 575, 754.18 575 C 756.847 575, 761 570.567, 761 567.72 C 761 566.416, 759.958 564.37, 758.686 563.174 Z M 767.429 227.571 C 765.576 225.719, 758.922 225.478, 757.2 227.2 C 755.478 228.922, 755.719 235.576, 757.571 237.429 C 759.721 239.578, 765.299 239.431, 767.345 237.171 C 769.439 234.858, 769.484 229.627, 767.429 227.571 Z M 776 586 C 770.299 586, 768.577 586.689, 767.557 588 C 767.038 588.667, 766.519 589.333, 766 590 C 766 593.635, 766.823 595.435, 767.829 596.345 C 769.857 598.18, 774.939 598.551, 776.8 597 C 777.2 596.667, 777.6 596.333, 778 596 C 785.098 596, 786.301 595.471, 787.565 593.541 C 791.832 587.029, 783.531 579.41, 777.714 584.5 C 777.143 585, 776.571 585.5, 776 586 Z M 786.365 143.073 C 783.041 140.458, 780.959 140.458, 777.635 143.073 C 774.603 145.458, 774.168 149.368, 776.557 152.777 C 778.746 155.902, 785.254 155.902, 787.443 152.777 C 789.832 149.368, 789.397 145.458, 786.365 143.073 Z M 835.306 608 C 834.422 605.528, 831.809 604, 828.464 604 C 822.016 604, 819.534 611.915, 824.707 615.984 C 830.315 620.396, 837.738 614.805, 835.306 608 Z M 836.443 495.223 C 835.347 493.658, 833.868 493, 831.443 493 C 825.112 493, 821.842 499.229, 825.75 503.847 C 831.732 510.917, 841.767 502.823, 836.443 495.223 Z M 837 281 C 831.797 279.925, 827.899 281.039, 826.102 284.114 C 825.735 284.743, 825.367 285.371, 825 286 C 825.875 290.543, 826.799 292.418, 827.618 293.098 C 829.732 294.852, 834.619 294.628, 836.987 292.667 C 837.658 292.111, 838.329 291.556, 839 291 C 844.094 291.968, 845.434 291.566, 846.941 290.059 C 852.759 284.241, 844.869 274.114, 838.714 279.5 C 838.143 280, 837.571 280.5, 837 281 Z M 846.984 551.707 C 844.416 548.442, 839.215 548, 836.655 550.829 C 834.663 553.03, 834.469 559.315, 836.345 560.872 C 843.033 566.422, 852.287 558.449, 846.984 551.707 Z M 860.171 439.655 C 858.046 437.732, 851.947 437.453, 850.2 439.2 C 848.332 441.068, 848.728 447.443, 850.829 449.345 C 853.142 451.439, 858.373 451.484, 860.429 449.429 C 862.578 447.279, 862.432 441.7, 860.171 439.655 Z M 864.171 222.655 C 861.49 220.228, 856.445 220.526, 854.557 223.223 C 851.197 228.02, 853.885 234, 859.402 234 C 861.317 234, 863.381 233.237, 864.345 232.171 C 866.542 229.744, 866.45 224.717, 864.171 222.655 Z M 871.454 531.644 C 867.798 526.856, 866.27 526.13, 864.2 528.2 C 862.383 530.017, 862.737 532.014, 865.615 536.165 C 868.799 540.76, 871.81 541.981, 873.674 539.431 C 875.484 536.956, 875.468 536.901, 871.454 531.644 Z M 880.811 295.039 C 878.02 292.438, 874.969 292.45, 871.635 295.073 C 866.551 299.071, 869.453 307, 876 307 C 882.252 307, 885.359 299.276, 880.811 295.039 Z M 888.435 393.763 C 885.288 387.963, 876.865 390.045, 876.191 396.79 C 875.533 403.374, 883.809 406.6, 887.927 401.365 C 890.36 398.272, 890.417 397.417, 888.435 393.763 Z M 887.961 419.189 C 885.281 416.312, 880.943 416.368, 878.174 419.314 C 875.326 422.347, 875.422 425.513, 878.455 428.545 C 881.453 431.544, 883.905 431.649, 887.365 428.927 C 890.586 426.394, 890.838 422.277, 887.961 419.189 Z M 892.92 263.75 C 891.749 261.74, 886.999 261.401, 885.2 263.2 C 883.864 264.536, 883.636 267.902, 884.765 269.615 C 886.304 271.951, 889.835 272.165, 891.949 270.051 C 894.221 267.779, 894.44 266.359, 892.92 263.75 Z M 901.686 525.174 C 897.076 520.844, 890 523.767, 890 530 C 890 536.323, 897.497 539.294, 901.826 534.686 C 904.646 531.683, 904.591 527.904, 901.686 525.174 Z M 906.428 186.75 C 905.193 184.473, 904.263 184, 901.025 184 C 898.117 184, 896.714 184.57, 895.557 186.223 C 892.081 191.185, 894.801 197.015, 900.579 196.985 C 904.059 196.966, 905.316 196.232, 906.85 193.316 C 908.29 190.58, 908.261 190.129, 906.428 186.75 Z M 909.984 442.315 C 907.316 435.622, 897 437.812, 897 445.071 C 897 448.791, 900.17 452, 903.845 452 C 908.448 452, 911.761 446.773, 909.984 442.315 Z M 914.426 457.763 C 911.56 452.45, 904.24 453.607, 901.908 459.741 C 901.357 461.191, 900.027 462.993, 898.953 463.745 C 896.763 465.28, 896.328 469.928, 898.2 471.8 C 900.302 473.902, 904.628 473.217, 906.408 470.5 C 907.309 469.125, 908.866 468, 909.868 468 C 913.979 468, 916.678 461.937, 914.426 457.763 Z M 918.25 380.778 C 915.765 378.603, 909.549 376.576, 907.626 377.313 C 906.722 377.66, 906 379.052, 906 380.448 C 906 384.905, 917.896 389.319, 919.393 385.418 C 920.305 383.041, 920.16 382.45, 918.25 380.778 Z M 944.75 259.746 C 942.619 256.956, 938.725 256.642, 935.707 259.016 C 928.668 264.553, 936.434 274.587, 943.777 269.443 C 946.297 267.679, 946.82 262.456, 944.75 259.746 Z M 974.238 393.046 C 970.385 388.287, 962 391.102, 962 397.155 C 962 402.63, 968.882 406.038, 973.295 402.75 C 976 400.735, 976.478 395.812, 974.238 393.046 Z M 491.603 290.086 C 490.782 289.404, 489.073 288.994, 487.805 289.173 C 486.005 289.428, 485.5 290.134, 485.5 292.391 C 485.5 295.956, 488.184 298.001, 490.75 296.393 C 493.04 294.957, 493.488 291.65, 491.603 290.086 Z M 506.829 375.229 C 504.945 373.345, 503.674 373.705, 498.644 377.546 C 493.634 381.371, 492.905 383.344, 495.908 384.951 C 497.427 385.763, 498.802 385.311, 502.648 382.736 C 507.724 379.337, 508.873 377.273, 506.829 375.229 Z M 531.443 373.223 C 528.548 369.089, 523 370.914, 523 376 C 523 377.43, 523.54 379.14, 524.2 379.8 C 526.101 381.701, 530.792 381.258, 531.965 379.066 C 533.338 376.5, 533.28 375.844, 531.443 373.223 Z M 592.728 528.557 C 587.723 525.278, 582.232 530.653, 585.496 535.635 C 587.357 538.475, 591.033 538.726, 593.345 536.171 C 595.67 533.603, 595.403 530.31, 592.728 528.557 Z M 644.92 556.75 C 643.749 554.74, 638.999 554.401, 637.2 556.2 C 636.54 556.86, 636 558.57, 636 560 C 636 564.88, 641.059 566.802, 644.345 563.171 C 646.228 561.091, 646.39 559.275, 644.92 556.75 Z M 719.8 186.2 C 717.74 184.14, 715.541 184.862, 711.608 188.889 C 707.264 193.338, 707.083 196.333, 711.13 196.804 C 712.991 197.021, 714.787 196.123, 717.372 193.686 C 721.179 190.095, 721.795 188.195, 719.8 186.2 Z M 738.11 150.143 C 736.78 148.044, 733.643 149.579, 729.028 154.585 C 724.627 159.36, 724.135 162.302, 727.653 162.805 C 729.127 163.017, 731.2 161.628, 734.369 158.305 C 739.132 153.313, 739.546 152.41, 738.11 150.143 Z M 811.92 522.75 C 810.749 520.74, 805.999 520.401, 804.2 522.2 C 803.54 522.86, 803 524.345, 803 525.5 C 803 526.655, 803.54 528.14, 804.2 528.8 C 806.101 530.701, 810.792 530.258, 811.965 528.066 C 813.23 525.702, 813.224 524.988, 811.92 522.75 Z M 899.8 303.2 C 897.215 300.615, 892 303.359, 892 307.306 C 892 309.971, 896.45 312.365, 898.933 311.036 C 901.252 309.795, 901.765 305.165, 899.8 303.2 Z M 900.494 358.995 C 898.093 357.002, 895.85 358.325, 893.272 363.251 C 890.494 368.561, 890.803 371, 894.253 371 C 897.961 371, 903.085 361.145, 900.494 358.995 Z M 906.8 420.2 C 904.808 418.208, 900.204 418.75, 898.932 421.126 C 897.188 424.387, 899.209 428, 902.779 428 C 906.13 428, 908 426.388, 908 423.5 C 908 422.345, 907.46 420.86, 906.8 420.2 Z M 441.106 323.084 C 436.984 319.819, 433 319.018, 433 321.454 C 433 323.452, 441.799 330.014, 443.568 329.335 C 445.997 328.403, 445.17 326.303, 441.106 323.084 Z M 456.209 359.706 C 451.808 355.371, 449 353.845, 449 355.788 C 449 356.221, 451.247 358.789, 453.994 361.494 C 457.323 364.773, 459.321 366.079, 459.987 365.413 C 460.654 364.746, 459.395 362.844, 456.209 359.706 Z M 480.038 463.524 C 478.991 462.876, 468 469.778, 468 471.083 C 468 473.135, 470.136 472.642, 475.343 469.385 C 480.94 465.883, 481.906 464.678, 480.038 463.524 Z M 484.633 256.11 C 483.745 255.373, 480.873 255.014, 477.334 255.198 C 471.586 255.496, 471.5 255.544, 471.5 258.5 C 471.5 259.5, 471.5 260.5, 471.5 261.5 C 473.833 261.5, 476.167 261.5, 478.5 261.5 C 484.836 261.5, 485.528 261.302, 485.798 259.413 C 485.962 258.264, 485.438 256.778, 484.633 256.11 Z M 495.148 330 C 489.511 330, 483.5 333.375, 483.5 336.54 C 483.5 339.268, 487.167 339.578, 489.46 337.044 C 490.478 335.92, 492.553 335, 494.073 335 C 498.14 335, 500 334.025, 500 331.893 C 500 330.296, 499.242 330, 495.148 330 Z M 508.472 407.976 C 506.978 406.737, 506.555 406.831, 505.004 408.746 C 503.137 411.053, 501.45 419.3, 502.498 420.997 C 503.779 423.069, 506.153 421.879, 507.587 418.447 C 510.103 412.424, 510.347 409.533, 508.472 407.976 Z M 517.616 565 C 515.835 565, 509 572.539, 509 574.503 C 509 576.909, 510.312 576.276, 514.792 571.712 C 519.096 567.326, 520.075 565, 517.616 565 Z M 525.907 366.228 C 524.879 363.507, 522.292 362.308, 520.76 363.84 C 519.128 365.472, 521.451 370, 523.92 370 C 526.458 370, 526.967 369.034, 525.907 366.228 Z M 533.25 478.689 C 531.415 477.639, 521.974 475.692, 521.418 476.249 C 520.184 477.483, 522.097 478.841, 526 479.5 C 528.194 479.871, 530.243 480.585, 530.554 481.087 C 531.45 482.537, 534 482.146, 534 480.559 C 534 479.766, 533.662 478.925, 533.25 478.689 Z M 556.375 274.709 C 555.986 274.319, 552.803 274, 549.302 274 C 544.543 274, 542.791 274.382, 542.357 275.513 C 541.167 278.613, 543.972 280.104, 550.409 279.794 C 555.663 279.54, 556.54 279.22, 556.792 277.459 C 556.953 276.336, 556.765 275.099, 556.375 274.709 Z M 563.333 539.667 C 562.308 538.642, 558.194 538.877, 557.5 540 C 557.16 540.55, 555.648 541, 554.141 541 C 550.934 541, 549 542.623, 549 545.315 C 549 547.063, 549.502 547.168, 554.75 546.514 C 557.912 546.12, 561.287 545.377, 562.25 544.864 C 563.987 543.936, 564.611 540.944, 563.333 539.667 Z M 579.507 165.185 C 574.916 161.573, 569 161.194, 569 164.511 C 569 166.387, 577.617 172.22, 579.779 171.808 C 582.579 171.274, 582.423 167.478, 579.507 165.185 Z M 573.422 249.332 C 570.614 248.254, 568.752 251.435, 568.622 257.532 C 568.529 261.852, 568.904 263.496, 570.166 264.31 C 571.391 265.1, 572.252 265.036, 573.416 264.07 C 575.672 262.198, 575.677 250.197, 573.422 249.332 Z M 585.674 483.294 C 582.926 475.791, 579 476.226, 579 484.034 C 579 489.917, 580.319 493, 582.835 493 C 586.826 493, 587.893 489.353, 585.674 483.294 Z M 617.92 215.75 C 616.598 213.481, 613.747 213.517, 611.655 215.829 C 608.695 219.099, 610.243 223, 614.5 223 C 618.454 223, 620.105 219.501, 617.92 215.75 Z M 622.513 605.011 C 620.372 603.234, 618.445 604.335, 615.483 609.027 C 612.264 614.126, 612.47 617.5, 616 617.5 C 617.977 617.5, 619.058 616.455, 621.169 612.5 C 624.386 606.472, 624.371 606.553, 622.513 605.011 Z M 638.352 529.305 C 636.455 528.577, 628 536.856, 628 539.442 C 628 542.524, 631.767 540.906, 635.843 536.071 C 640.526 530.518, 640.649 530.186, 638.352 529.305 Z M 638.903 209.053 C 633.247 206.621, 631 206.895, 631 210.018 C 631 211.496, 632.23 212.656, 635.25 214.027 C 641.238 216.745, 644 216.618, 644 213.623 C 644 211.718, 642.988 210.811, 638.903 209.053 Z M 667.457 641.345 C 665.509 640.597, 664.966 641.16, 663.195 645.769 C 661.093 651.237, 661.117 655.374, 663.253 655.799 C 664.276 656.003, 665.258 655.389, 665.61 654.324 C 665.942 653.321, 666.841 651.082, 667.607 649.349 C 669.433 645.218, 669.374 642.081, 667.457 641.345 Z M 671.98 144.99 C 668.273 143.005, 666.872 145.329, 667.208 152.907 C 667.305 155.105, 667.403 157.302, 667.5 159.5 C 668.5 159.5, 669.5 159.5, 670.5 159.5 C 671.5 159.5, 672.5 159.5, 673.5 159.5 C 673.598 157.27, 673.696 155.039, 673.794 152.809 C 674.056 146.864, 673.854 145.992, 671.98 144.99 Z M 721.333 573.667 C 719.684 572.018, 717.056 573.316, 714.633 576.979 C 711.587 581.581, 711.313 583.799, 713.679 584.707 C 716.854 585.925, 723.707 576.04, 721.333 573.667 Z M 716.969 110.25 C 714.831 104.931, 711.507 109.193, 712.336 116.191 C 713.011 121.889, 714.074 123.569, 716.433 122.664 C 718.202 121.985, 718.54 114.158, 716.969 110.25 Z M 724.065 231.123 C 718.269 228.63, 717 228.501, 717 230.408 C 717 231.238, 719.466 232.649, 723 233.843 C 730.622 236.417, 731.45 234.3, 724.065 231.123 Z M 748.669 214.009 C 747.871 210.943, 746.896 209.403, 745.599 209.156 C 743.872 208.828, 743.752 209.261, 744.298 213.869 C 745.001 219.805, 746.484 223, 748.535 223 C 750.271 223, 750.312 220.315, 748.669 214.009 Z M 795.333 198.667 C 794.967 198.3, 793.797 198, 792.734 198 C 791.672 198, 789.275 197.275, 787.409 196.39 C 785.543 195.504, 783.304 195.053, 782.434 195.387 C 779.948 196.341, 781.214 199.368, 784.51 200.347 C 786.154 200.836, 788.281 201.632, 789.236 202.118 C 792.344 203.697, 796 203.182, 796 201.167 C 796 200.158, 795.7 199.033, 795.333 198.667 Z M 797.75 517.806 C 794.981 514.315, 790 515.297, 790 519.335 C 790 523.872, 795.913 525.899, 797.965 522.066 C 799.256 519.653, 799.259 519.708, 797.75 517.806 Z M 807.629 554.496 C 801.714 552.237, 798.5 552.758, 798.5 555.976 C 798.5 557.859, 799.219 558.669, 801.5 559.359 C 803.15 559.859, 805.482 560.717, 806.683 561.266 C 809.718 562.656, 812 561.518, 812 558.614 C 812 556.644, 811.146 555.839, 807.629 554.496 Z M 809.71 240 C 808.192 236.989, 804.852 236.29, 802.625 238.518 C 800.469 240.674, 800.564 244.295, 802.829 246.345 C 805.125 248.423, 807.405 248.452, 809.429 246.429 C 811.318 244.539, 811.372 243.297, 809.71 240 Z M 836.918 246 C 835.179 246, 827 253.109, 827 254.62 C 827 257.198, 830.581 256.014, 834.297 252.208 C 837.968 248.449, 839.002 246, 836.918 246 Z M 838.25 515.173 C 833.542 513.343, 827.728 512.05, 826.795 512.627 C 825.295 513.554, 828.094 516, 830.655 516 C 831.98 516, 834.588 516.637, 836.451 517.415 C 839.634 518.745, 841 518.607, 841 516.955 C 841 516.563, 839.763 515.761, 838.25 515.173 Z M 847.8 189.2 C 845.333 186.733, 842.936 187.89, 840.879 192.54 C 836.572 202.277, 841.477 205.48, 846.244 196.044 C 849.489 189.619, 849.254 190.654, 847.8 189.2 Z M 849.139 472.5 C 846.044 467.488, 843.302 465.504, 841.519 466.984 C 839.381 468.759, 839.593 469.966, 842.978 475.304 C 846.034 480.123, 849.225 481.463, 850.393 478.418 C 851.263 476.151, 851.194 475.827, 849.139 472.5 Z M 854.364 485.309 C 852.061 484.426, 849.553 486.271, 849.208 489.102 C 849.048 490.421, 848.394 492.542, 847.755 493.815 C 846.25 496.813, 847.835 499.5, 851.109 499.5 C 852.904 499.5, 853.583 498.876, 853.835 497 C 854.019 495.625, 854.581 494.073, 855.085 493.55 C 856.673 491.901, 856.157 485.997, 854.364 485.309 Z M 866.823 255.987 C 864.024 255.958, 854.073 261.52, 854.296 262.989 C 854.678 265.492, 857.502 265.234, 862.618 262.228 C 867.284 259.487, 869.623 256.015, 866.823 255.987 Z M 869.614 404.405 C 866.672 403.277, 865.288 404.769, 864.623 409.787 C 863.845 415.65, 864.539 418, 867.048 418 C 869.449 418, 869.671 417.536, 870.514 410.762 C 871.109 405.973, 870.961 404.922, 869.614 404.405 Z M 877 326 C 871.856 321.739, 868.322 321.257, 866.045 324.508 C 865.697 325.005, 865.348 325.503, 865 326 C 865 330.859, 867.825 333.443, 872.233 332.616 C 874.422 332.205, 876.303 332.504, 877.773 333.497 C 878.516 333.998, 879.258 334.499, 880 335 C 885.277 336.1, 886.125 335.838, 886.641 334.493 C 887.139 333.195, 886.173 331.868, 882.906 329.361 C 880.483 327.501, 878.162 325.984, 877.75 325.99 C 877.5 325.993, 877.25 325.997, 877 326 Z M 883.333 446.667 C 882.967 446.3, 880.057 446, 876.869 446 C 872.034 446, 870.887 446.343, 869.966 448.064 C 868.112 451.527, 870.407 453.207, 875.904 452.41 C 878.432 452.044, 881.287 451.336, 882.25 450.837 C 884.023 449.918, 884.551 447.885, 883.333 446.667 Z M 898.375 226.709 C 897.986 226.319, 895.097 226, 891.956 226 C 885.924 226, 883.249 227.6, 884.374 230.533 C 884.851 231.776, 886.346 232.032, 891.736 231.796 C 897.667 231.536, 898.536 231.249, 898.792 229.459 C 898.953 228.336, 898.765 227.099, 898.375 226.709 Z M 903.486 567.684 C 900.786 564.745, 899.355 563.941, 897.25 564.184 C 893.51 564.616, 893.245 567.321, 896.521 571.616 C 899.935 576.093, 903.357 577.778, 905.47 576.025 C 907.833 574.064, 907.305 571.842, 903.486 567.684 Z M 929.082 418.046 C 927.425 413.959, 925 411.453, 925 413.828 C 925 415.814, 929.3 426, 930.139 426 C 931.472 426, 931.065 422.936, 929.082 418.046 Z M 943.816 462.005 C 937.426 458.061, 932.5 458.324, 932.5 462.609 C 932.5 464.912, 940.315 469.073, 944 468.732 C 948.002 468.361, 947.897 464.523, 943.816 462.005 Z M 946.208 503.703 C 942.505 500.087, 938.767 498.949, 937.473 501.044 C 936.599 502.458, 938.333 504.37, 943.733 507.947 C 950.876 512.678, 952.517 509.864, 946.208 503.703 Z M 946.052 363.699 C 945.168 359.239, 943.878 357.682, 941.463 358.156 C 938.699 358.7, 937.411 361.481, 938.672 364.185 C 939.265 365.458, 940.261 367.768, 940.885 369.318 C 941.732 371.422, 942.587 372.056, 944.26 371.818 C 946.782 371.46, 947.207 369.531, 946.052 363.699 Z M 960.75 325.979 C 958.412 325.375, 955.713 324.652, 954.75 324.373 C 953.787 324.094, 953 324.357, 953 324.957 C 953 326.209, 956.176 327.567, 961.393 328.546 C 966.57 329.517, 966.025 327.342, 960.75 325.979 Z M 971.894 287 C 970.736 287, 968.036 288.388, 965.894 290.084 C 958.712 295.772, 962.335 298.437, 969.85 292.994 C 974.349 289.735, 975.281 287, 971.894 287 Z M 536.071 442.929 C 534.932 444.068, 534 446.145, 534 447.545 C 534 450.537, 538.083 455, 540.82 455 C 543.415 455, 548 451.254, 548 449.134 C 548 448.056, 549.213 447.056, 551.25 446.457 C 553.519 445.789, 554.599 444.804, 554.827 443.195 C 555.485 438.548, 550.806 436.336, 547.44 439.703 C 546.304 440.839, 544.473 441.314, 541.94 441.132 C 539.178 440.932, 537.578 441.422, 536.071 442.929 Z M 537.908 339.792 C 537.232 344.506, 537.51 348.5, 538.514 348.5 C 539.359 348.5, 541.392 335.059, 540.659 334.325 C 539.501 333.168, 538.601 334.956, 537.908 339.792 Z M 607.859 575 C 607.471 576.375, 607.231 579.075, 607.327 581 C 607.463 583.759, 607.958 584.565, 609.662 584.808 C 611.506 585.071, 612.063 584.296, 613.442 579.551 C 613.981 577.696, 614.521 575.841, 615.06 573.986 C 616.309 574.186, 617.557 574.385, 618.806 574.585 C 625.722 575.691, 630.142 568.993, 625.984 563.707 C 621.909 558.527, 614.802 560.739, 613.427 567.615 C 613.089 569.306, 611.906 571.011, 610.698 571.549 C 609.525 572.072, 608.248 573.625, 607.859 575 Z M 680.752 210 C 677.272 216.965, 679.332 223.148, 684.132 220.149 C 685.82 219.095, 686 219.315, 686 222.435 C 686 228.115, 691.903 230.858, 696.777 227.443 C 699.735 225.372, 699.8 219.8, 696.901 216.901 C 694.916 214.916, 693 214.743, 688.042 216.101 C 686.91 216.411, 686.575 215.383, 686.542 211.5 C 686.506 207.181, 686.228 206.5, 684.5 206.5 C 683.214 206.5, 681.876 207.749, 680.752 210 Z M 717.66 618.3 C 715.365 619.181, 715.611 622.753, 718.293 627.5 C 720.715 631.785, 724.535 633.377, 725.618 630.552 C 726.962 627.051, 720.556 617.189, 717.66 618.3 Z " fill="rgb(255,255,255)" />
<path d="M 439.548 439.04 C 441.582 440.728, 441.361 442.313, 438.75 444.759 C 434.96 448.31, 430.891 450.012, 428.83 448.909 C 426.131 447.465, 426.583 445.573, 430.434 442.192 C 434.66 438.482, 437.636 437.453, 439.548 439.04 Z " fill="rgb(190,226,197)" />
<path d="M 502.327 440 C 503.018 441.863, 502.188 446.069, 500.797 447.744 C 500.224 448.435, 498.036 449, 495.934 449 C 489.884 449, 487.024 443.267, 490.557 438.223 C 493.196 434.454, 500.688 435.586, 502.327 440 Z " fill="rgb(62,174,90)" />
<path d="M 514.171 347.655 C 517.79 350.93, 515.335 358.019, 510.595 357.985 C 507.938 357.965, 506.594 357.06, 505.15 354.315 C 502.165 348.646, 509.38 343.319, 514.171 347.655 Z " fill="rgb(252,214,78)" />
<path d="M 541.338 309.25 C 542.379 311.831, 541.897 312.861, 537.997 316.384 C 533.742 320.228, 532.128 320.728, 530.2 318.8 C 528.137 316.737, 528.87 314.321, 532.535 311.104 C 536.156 307.924, 540.439 307.022, 541.338 309.25 Z " fill="url(#grad_10)" />
<path d="M 544.961 193.189 C 547.427 195.836, 547.592 199.689, 545.345 202.171 C 543.253 204.483, 537.3 204.582, 534.829 202.345 C 532.55 200.283, 532.458 195.256, 534.655 192.829 C 536.982 190.258, 542.407 190.447, 544.961 193.189 Z " fill="rgb(203,231,210)" />
<path d="M 545 396 C 546.111 397.111, 547 399.333, 547 401 C 547 402.667, 546.111 404.889, 545 406 C 540.83 410.17, 534 407.341, 534 401.443 C 534 394.976, 540.674 391.674, 545 396 Z " fill="rgb(251,213,74)" />
<path d="M 549.429 222.571 C 551.203 224.346, 551.545 229.545, 549.952 230.53 C 549.313 230.924, 549.157 232.861, 549.551 235.49 C 550.399 241.149, 549.541 243.533, 546.151 244.938 C 539.19 247.821, 532.896 239.487, 537.468 233.441 C 538.276 232.374, 538.951 230.138, 538.968 228.473 C 539.035 222.099, 545.378 218.521, 549.429 222.571 Z " fill="rgb(66,175,93)" />
<path d="M 557 426 C 556.75 426.002, 556.5 426.005, 556.25 426.007 C 554.539 426.024, 554.986 421.644, 556.903 419.604 C 558.944 417.43, 558.95 417.265, 557.353 406.202 C 556.814 402.468, 556.275 398.734, 555.736 395 C 554.299 395, 552.862 395, 551.425 395 C 546.519 395, 544 392.549, 544 387.777 C 544 382.9, 547.363 381, 556 381 C 556 381.333, 556 381.667, 556 382 C 556.342 385.417, 556.684 388.833, 557.026 392.25 C 557.59 397.888, 558.647 405.974, 559.374 410.219 C 560.683 417.869, 560.673 417.958, 558.29 420.197 C 556.792 421.605, 556.096 423.123, 557 426 Z " fill="rgb(174,215,182)" />
<path d="M 553.777 471.557 C 558.332 474.747, 555.634 483, 550.036 483 C 546.097 483, 543.667 480.769, 543.667 477.154 C 543.667 471.15, 548.989 468.203, 553.777 471.557 Z " fill="rgb(251,236,182)" />
<path d="M 558.171 302.655 C 560.45 304.717, 560.542 309.744, 558.345 312.171 C 556.283 314.45, 551.256 314.542, 548.829 312.345 C 546.55 310.283, 546.458 305.256, 548.655 302.829 C 550.717 300.55, 555.744 300.458, 558.171 302.655 Z " fill="rgb(67,176,94)" />
<path d="M 560.75 571.746 C 562.515 574.056, 562.302 579.009, 560.345 581.171 C 558.283 583.45, 553.256 583.542, 550.829 581.345 C 549.767 580.384, 549 578.318, 549 576.418 C 549 570.149, 557.077 566.937, 560.75 571.746 Z " fill="rgb(64,174,94)" />
<path d="M 557 381 C 557 380.667, 557 380.333, 557 380 C 557.333 374, 557.667 368, 558 362 C 558 360.333, 558 358.667, 558 357 C 558.159 357, 558.318 357, 558.477 357 C 558.739 357, 559.864 353.625, 563 342 C 564.111 338.917, 565.221 335.833, 566.332 332.75 C 568.165 327.663, 570.415 322.038, 573 317 C 574.681 314.114, 576.361 311.227, 578.042 308.341 C 586.119 294.469, 596.055 282.611, 607.905 272.697 C 616.552 265.464, 620.169 262.94, 639 251 C 640.333 250.667, 641.667 250.333, 643 250 C 645.063 249.138, 647.126 248.277, 649.189 247.415 C 658.256 243.628, 675.843 239.249, 687.399 237.901 C 707.777 235.524, 731.48 238.025, 751.5 244.666 C 768.056 250.158, 777.166 255.209, 799 271 C 801.667 273.333, 804.333 275.667, 807 278 C 808.999 280.25, 810.998 282.5, 812.998 284.75 C 829.371 303.177, 839.047 321.176, 847 348 C 847.333 350.333, 847.667 352.667, 848 355 C 848.32 355.821, 848.641 356.642, 848.961 357.463 C 849.49 358.818, 850.231 364.015, 850.608 369.011 C 851.207 376.937, 851.658 378.553, 854.147 381.685 C 857.7 386.156, 857.7 387.126, 854.142 391.215 C 851.9 393.792, 851.131 395.9, 850.57 401 C 849.408 411.569, 847.303 420.366, 841 441 C 839.667 444, 838.333 447, 837 450 C 835.333 452.667, 833.667 455.333, 832 458 C 830.086 460.905, 828.172 463.81, 826.258 466.715 C 818.532 478.442, 805.365 491.982, 790 504 C 787.917 505.354, 785.833 506.708, 783.75 508.062 C 774.275 514.221, 758.657 521.471, 747.5 524.891 C 734.75 528.798, 723.636 530.574, 703 532 C 693.333 531.333, 683.667 530.667, 674 530 C 674 529.763, 674 529.526, 674 529.289 C 674 528.899, 672.875 528.674, 669 529 C 668.583 528.711, 668.167 528.422, 667.75 528.133 C 667.062 527.656, 663.417 526.255, 659.649 525.018 C 653.972 523.155, 652.41 522.978, 650.531 523.984 C 647.098 525.821, 644.616 524.888, 643.578 521.372 C 642.857 518.928, 641.443 517.658, 637.078 515.537 C 632.28 513.205, 620.644 505.674, 609.274 497.539 C 603.885 493.684, 588.263 476.031, 582.252 467.003 C 575.128 456.305, 567.898 442.173, 564.732 432.76 C 562.47 426.035, 562.095 425.518, 557 426 C 556.096 423.123, 556.792 421.605, 558.29 420.197 C 560.673 417.958, 560.683 417.869, 559.374 410.219 C 558.647 405.974, 557.59 397.888, 557.026 392.25 C 556.684 388.833, 556.342 385.417, 556 382 C 556.333 381.667, 556.667 381.333, 557 381 Z M 633.155 386.5 C 630.4 391.537, 631.886 393.583, 654.768 416.25 C 674.691 435.985, 674.71 436, 679.167 436 C 680.654 436, 682.141 436, 683.628 436 C 698.767 420.829, 713.907 405.657, 729.047 390.486 C 754.027 365.453, 774.834 343.977, 775.285 342.76 C 777.235 337.486, 773.149 332.007, 767.25 331.987 C 763.629 331.975, 762.071 333.423, 722 374.031 C 699.175 397.163, 680.045 416.068, 679.489 416.044 C 678.933 416.02, 670.838 408.35, 661.5 399 C 645.866 383.345, 644.24 382, 640.952 382 C 637.139 382, 634.914 383.284, 633.155 386.5 Z " fill="rgb(60,180,92)" />
<path d="M 573 317 C 570.415 322.038, 568.165 327.663, 566.332 332.75 C 565.221 335.833, 564.111 338.917, 563 342 C 562.765 342, 562.529 342, 562.294 342 C 561.905 342, 562.917 337.958, 564.544 333.019 C 565.529 330.025, 566.515 327.031, 567.5 324.037 C 566.75 324.031, 566 324.025, 565.25 324.019 C 562.125 323.993, 559 320.557, 559 317.146 C 559 313.85, 563.007 309, 565.73 309 C 569.135 309, 571.865 312.005, 573 317 Z " fill="rgb(184,219,191)" />
<path d="M 568.686 457.174 C 569.958 458.37, 571 460.416, 571 461.72 C 571 464.651, 566.819 469, 564 469 C 561.11 469, 557 464.623, 557 461.545 C 557 455.728, 564.257 453.014, 568.686 457.174 Z " fill="rgb(246,212,102)" />
<path d="M 574.8 291.2 C 576.286 292.686, 576.292 292.537, 574.595 295.8 C 572.539 299.75, 568.451 303.233, 566.339 302.832 C 563.246 302.245, 563.579 297.928, 567.04 293.75 C 570.229 289.9, 572.691 289.091, 574.8 291.2 Z " fill="url(#grad_22)" />
<path d="M 579.541 500.211 C 582.287 502.371, 582.229 502.239, 581.393 504.418 C 580.544 506.63, 577.199 506.362, 572.5 503.707 C 565.725 499.878, 567.066 494.128, 574.059 497.024 C 575.721 497.713, 578.188 499.147, 579.541 500.211 Z " fill="rgb(186,221,193)" />
<path d="M 587.483 263.625 C 590.052 266.195, 589.078 271.21, 585.697 272.823 C 583.286 273.973, 582.55 273.935, 580.447 272.557 C 578.871 271.524, 578 270.012, 578 268.306 C 578 262.949, 583.896 260.039, 587.483 263.625 Z " fill="rgb(244,229,157)" />
<path d="M 603.306 571 C 604.411 574.093, 603.929 576.162, 601.545 578.545 C 598.4 581.69, 595.565 581.656, 592.343 578.434 C 590.267 576.358, 589.896 575.259, 590.402 572.684 C 591.139 568.928, 593.378 567, 597 567 C 599.861 567, 602.467 568.653, 603.306 571 Z " fill="rgb(195,230,202)" />
<path d="M 598 520 C 599 519.333, 600 518.667, 601 518 C 600.629 518.496, 600.259 518.992, 599.888 519.487 C 599.277 520.305, 599.037 521.655, 599.357 522.487 C 600.036 524.258, 604 524.549, 604 522.829 C 604 520.172, 607.599 518, 612 518 C 613.667 519.166, 615.333 520.332, 617 521.498 C 622.466 525.322, 623.514 528.669, 620.345 532.171 C 618.388 534.334, 613.726 534.58, 612.089 532.608 C 611.454 531.842, 609.614 530.668, 608 530 C 606.387 529.332, 604.805 527.962, 604.486 526.956 C 604.167 525.95, 602.914 524.986, 601.703 524.813 C 600.482 524.64, 599.166 523.497, 598 520 Z " fill="rgb(249,217,103)" />
<path d="M 627.443 175.223 C 629.682 178.419, 629.364 181.727, 626.545 184.545 C 623.547 187.544, 621.095 187.649, 617.635 184.927 C 614.603 182.542, 614.168 178.632, 616.557 175.223 C 618.746 172.098, 625.254 172.098, 627.443 175.223 Z " fill="rgb(149,205,165)" />
<path d="M 663.293 225.016 C 668.618 229.204, 665.785 237.333, 659 237.333 C 652.955 237.333, 649.862 230.748, 653.75 226.153 C 656.449 222.964, 660.127 222.526, 663.293 225.016 Z " fill="rgb(192,225,199)" />
<path d="M 664.066 196.035 C 666.447 197.31, 666.659 202.199, 664.429 204.429 C 659.493 209.364, 651.968 202.007, 656.655 196.829 C 658.511 194.778, 661.182 194.492, 664.066 196.035 Z " fill="rgb(69,175,95)" />
<path d="M 677.594 556.563 C 679.414 562.346, 678.964 565.434, 676.245 565.82 C 674.396 566.083, 673.629 565.3, 671.995 561.487 C 669.573 555.839, 669.443 552.151, 671.636 551.309 C 674.124 550.355, 676.222 552.205, 677.594 556.563 Z " fill="rgb(194,226,202)" />
<path d="M 758.686 563.174 C 759.958 564.37, 761 566.416, 761 567.72 C 761 570.567, 756.847 575, 754.18 575 C 750.893 575, 747 571.165, 747 567.927 C 747 561.763, 754.106 558.872, 758.686 563.174 Z " fill="rgb(254,213,70)" />
<path d="M 767.429 227.571 C 769.484 229.627, 769.439 234.858, 767.345 237.171 C 765.299 239.431, 759.721 239.578, 757.571 237.429 C 755.719 235.576, 755.478 228.922, 757.2 227.2 C 758.922 225.478, 765.576 225.719, 767.429 227.571 Z " fill="rgb(249,230,163)" />
<path d="M 766 590 C 766.519 589.333, 767.038 588.667, 767.557 588 C 768.577 586.689, 770.299 586, 776 586 C 775.837 586.519, 775.673 587.037, 775.51 587.556 C 775.24 588.412, 775.69 590.662, 778 596 C 777.6 596.333, 777.2 596.667, 776.8 597 C 774.939 598.551, 769.857 598.18, 767.829 596.345 C 766.823 595.435, 766 593.635, 766 590 Z " fill="rgb(188,224,191)" />
<path d="M 768 527 C 768.853 526.132, 769.706 525.263, 770.56 524.395 C 772.462 522.459, 773.746 521.945, 778 523 C 778.5 523.374, 779 523.748, 779.5 524.122 C 781.511 525.628, 781.415 531.884, 779.345 534.171 C 778.381 535.237, 776.317 536, 774.402 536 C 770.133 536, 768 533.001, 768 527 Z " fill="rgb(245,208,90)" />
<path d="M 786.365 143.073 C 789.397 145.458, 789.832 149.368, 787.443 152.777 C 785.254 155.902, 778.746 155.902, 776.557 152.777 C 774.168 149.368, 774.603 145.458, 777.635 143.073 C 780.959 140.458, 783.041 140.458, 786.365 143.073 Z " fill="rgb(62,176,93)" />
<path d="M 778 596 C 775.69 590.662, 775.24 588.412, 775.51 587.556 C 775.673 587.037, 775.837 586.519, 776 586 C 776.571 585.5, 777.143 585, 777.714 584.5 C 783.531 579.41, 791.832 587.029, 787.565 593.541 C 786.301 595.471, 785.098 596, 778 596 Z " fill="rgb(250,233,176)" />
<path d="M 835.306 608 C 837.738 614.805, 830.315 620.396, 824.707 615.984 C 819.534 611.915, 822.016 604, 828.464 604 C 831.809 604, 834.422 605.528, 835.306 608 Z " fill="rgb(252,234,179)" />
<path d="M 836.443 495.223 C 841.767 502.823, 831.732 510.917, 825.75 503.847 C 821.842 499.229, 825.112 493, 831.443 493 C 833.868 493, 835.347 493.658, 836.443 495.223 Z " fill="rgb(155,207,168)" />
<path d="M 825 286 C 825.367 285.371, 825.735 284.743, 826.102 284.114 C 827.899 281.039, 831.797 279.925, 837 281 C 837.667 284.333, 838.333 287.667, 839 291 C 838.329 291.556, 837.658 292.111, 836.987 292.667 C 834.619 294.628, 829.732 294.852, 827.618 293.098 C 826.799 292.418, 825.875 290.543, 825 286 Z " fill="rgb(64,176,91)" />
<path d="M 832 458 C 833.667 455.333, 835.333 452.667, 837 450 C 836.998 450.25, 836.995 450.5, 836.993 450.75 C 836.978 452.306, 841.819 452.038, 843.465 450.392 C 844.704 449.153, 845.017 447.749, 844 442 C 844.399 442.227, 844.798 442.454, 845.197 442.681 C 846.121 443.206, 846.129 445.021, 845.235 450.642 C 843.357 462.447, 838.015 465.417, 832 458 Z " fill="url(#grad_46)" />
<path d="M 846.984 551.707 C 852.287 558.449, 843.033 566.422, 836.345 560.872 C 834.469 559.315, 834.663 553.03, 836.655 550.829 C 839.215 548, 844.416 548.442, 846.984 551.707 Z " fill="rgb(64,176,91)" />
<path d="M 839 291 C 838.333 287.667, 837.667 284.333, 837 281 C 837.571 280.5, 838.143 280, 838.714 279.5 C 844.869 274.114, 852.759 284.241, 846.941 290.059 C 845.434 291.566, 844.094 291.968, 839 291 Z " fill="rgb(149,206,164)" />
<path d="M 860.171 439.655 C 862.432 441.7, 862.578 447.279, 860.429 449.429 C 858.373 451.484, 853.142 451.439, 850.829 449.345 C 848.728 447.443, 848.332 441.068, 850.2 439.2 C 851.947 437.453, 858.046 437.732, 860.171 439.655 Z " fill="rgb(242,226,168)" />
<path d="M 864.171 222.655 C 866.45 224.717, 866.542 229.744, 864.345 232.171 C 863.381 233.237, 861.317 234, 859.402 234 C 853.885 234, 851.197 228.02, 854.557 223.223 C 856.445 220.526, 861.49 220.228, 864.171 222.655 Z " fill="rgb(64,173,91)" />
<path d="M 862 357 C 862.588 355.917, 863.175 354.833, 863.763 353.75 C 866.205 349.249, 870.864 348.741, 873.932 352.641 C 876.689 356.146, 876.263 359.735, 872.783 362.322 C 870.375 364.112, 869.606 364.208, 862 362 C 862 360.667, 862 359.333, 862 358 C 862 357.667, 862 357.333, 862 357 Z " fill="rgb(237,194,170)" />
<path d="M 871.454 531.644 C 875.468 536.901, 875.484 536.956, 873.674 539.431 C 871.81 541.981, 868.799 540.76, 865.615 536.165 C 862.737 532.014, 862.383 530.017, 864.2 528.2 C 866.27 526.13, 867.798 526.856, 871.454 531.644 Z " fill="url(#grad_53)" />
<path d="M 880.811 295.039 C 885.359 299.276, 882.252 307, 876 307 C 869.453 307, 866.551 299.071, 871.635 295.073 C 874.969 292.45, 878.02 292.438, 880.811 295.039 Z " fill="rgb(58,175,90)" />
<path d="M 888.435 393.763 C 890.417 397.417, 890.36 398.272, 887.927 401.365 C 883.809 406.6, 875.533 403.374, 876.191 396.79 C 876.865 390.045, 885.288 387.963, 888.435 393.763 Z " fill="rgb(252,214,75)" />
<path d="M 887.961 419.189 C 890.838 422.277, 890.586 426.394, 887.365 428.927 C 883.905 431.649, 881.453 431.544, 878.455 428.545 C 875.422 425.513, 875.326 422.347, 878.174 419.314 C 880.943 416.368, 885.281 416.312, 887.961 419.189 Z " fill="rgb(145,203,157)" />
<path d="M 892.92 263.75 C 894.44 266.359, 894.221 267.779, 891.949 270.051 C 889.835 272.165, 886.304 271.951, 884.765 269.615 C 883.636 267.902, 883.864 264.536, 885.2 263.2 C 886.999 261.401, 891.749 261.74, 892.92 263.75 Z " fill="rgb(150,206,166)" />
<path d="M 901.686 525.174 C 904.591 527.904, 904.646 531.683, 901.826 534.686 C 897.497 539.294, 890 536.323, 890 530 C 890 523.767, 897.076 520.844, 901.686 525.174 Z " fill="rgb(138,201,152)" />
<path d="M 906.428 186.75 C 908.261 190.129, 908.29 190.58, 906.85 193.316 C 905.316 196.232, 904.059 196.966, 900.579 196.985 C 894.801 197.015, 892.081 191.185, 895.557 186.223 C 896.714 184.57, 898.117 184, 901.025 184 C 904.263 184, 905.193 184.473, 906.428 186.75 Z " fill="rgb(255,216,85)" />
<path d="M 909.984 442.315 C 911.761 446.773, 908.448 452, 903.845 452 C 900.17 452, 897 448.791, 897 445.071 C 897 437.812, 907.316 435.622, 909.984 442.315 Z " fill="rgb(65,174,92)" />
<path d="M 914.426 457.763 C 916.678 461.937, 913.979 468, 909.868 468 C 908.866 468, 907.309 469.125, 906.408 470.5 C 904.628 473.217, 900.302 473.902, 898.2 471.8 C 896.328 469.928, 896.763 465.28, 898.953 463.745 C 900.027 462.993, 901.357 461.191, 901.908 459.741 C 904.24 453.607, 911.56 452.45, 914.426 457.763 Z " fill="rgb(83,179,104)" />
<path d="M 918.25 380.778 C 920.16 382.45, 920.305 383.041, 919.393 385.418 C 917.896 389.319, 906 384.905, 906 380.448 C 906 379.052, 906.722 377.66, 907.626 377.313 C 909.549 376.576, 915.765 378.603, 918.25 380.778 Z " fill="rgb(188,222,196)" />
<path d="M 944.75 259.746 C 946.82 262.456, 946.297 267.679, 943.777 269.443 C 936.434 274.587, 928.668 264.553, 935.707 259.016 C 938.725 256.642, 942.619 256.956, 944.75 259.746 Z " fill="rgb(164,216,179)" />
<path d="M 974.238 393.046 C 976.478 395.812, 976 400.735, 973.295 402.75 C 968.882 406.038, 962 402.63, 962 397.155 C 962 391.102, 970.385 388.287, 974.238 393.046 Z " fill="rgb(250,233,176)" />
<path d="M 491.603 290.086 C 493.488 291.65, 493.04 294.957, 490.75 296.393 C 488.184 298.001, 485.5 295.956, 485.5 292.391 C 485.5 290.134, 486.005 289.428, 487.805 289.173 C 489.073 288.994, 490.782 289.404, 491.603 290.086 Z " fill="rgb(194,226,199)" />
<path d="M 506.829 375.229 C 508.873 377.273, 507.724 379.337, 502.648 382.736 C 498.802 385.311, 497.427 385.763, 495.908 384.951 C 492.905 383.344, 493.634 381.371, 498.644 377.546 C 503.674 373.705, 504.945 373.345, 506.829 375.229 Z " fill="rgb(108,190,131)" />
<path d="M 531.443 373.223 C 533.28 375.844, 533.338 376.5, 531.965 379.066 C 530.792 381.258, 526.101 381.701, 524.2 379.8 C 523.54 379.14, 523 377.43, 523 376 C 523 370.914, 528.548 369.089, 531.443 373.223 Z " fill="rgb(69,175,95)" />
<path d="M 592.728 528.557 C 595.403 530.31, 595.67 533.603, 593.345 536.171 C 591.033 538.726, 587.357 538.475, 585.496 535.635 C 582.232 530.653, 587.723 525.278, 592.728 528.557 Z " fill="rgb(78,179,103)" />
<path d="M 644.92 556.75 C 646.39 559.275, 646.228 561.091, 644.345 563.171 C 641.059 566.802, 636 564.88, 636 560 C 636 558.57, 636.54 556.86, 637.2 556.2 C 638.999 554.401, 643.749 554.74, 644.92 556.75 Z " fill="url(#grad_115)" />
<path d="M 703 532 C 723.636 530.574, 734.75 528.798, 747.5 524.891 C 758.657 521.471, 774.275 514.221, 783.75 508.062 C 785.833 506.708, 787.917 505.354, 790 504 C 790.032 504.25, 790.064 504.5, 790.096 504.75 C 790.149 505.163, 789.517 506.106, 788.693 506.847 C 787.868 507.587, 787.21 508.21, 787.231 508.231 C 787.252 508.252, 786.548 508.673, 785.667 509.167 C 784.785 509.66, 784.084 510.084, 784.108 510.108 C 784.132 510.132, 782.146 511.424, 779.695 512.978 C 773.877 516.668, 773.429 517.58, 776.46 519.565 C 777.847 520.475, 778.762 521.62, 778 523 C 773.746 521.945, 772.462 522.459, 770.56 524.395 C 769.706 525.263, 768.853 526.132, 768 527 C 767.805 526.652, 767.609 526.304, 767.414 525.956 C 767.092 525.382, 767.322 524.317, 767.926 523.589 C 769.128 522.141, 767.286 519.803, 765.467 520.469 C 762.985 521.378, 754.5 525.317, 754.5 525.56 C 754.5 525.71, 753.289 525.871, 751.809 525.917 C 750.329 525.963, 748.84 526.45, 748.5 527 C 748.16 527.55, 746.896 528.002, 745.691 528.004 C 744.486 528.006, 741.98 528.934, 740.123 530.066 C 738.997 530.753, 737.871 531.439, 736.746 532.125 C 737.621 533.039, 738.497 533.953, 739.373 534.867 C 740.997 536.562, 741.999 538.734, 741.997 540.555 C 741.994 543.304, 741.742 543.497, 738.201 543.458 C 735.165 543.425, 733.496 542.577, 729.842 539.208 C 725.648 535.342, 724.838 535.001, 719.888 535.015 C 712.936 535.035, 711.632 535.822, 713.166 539.072 C 714.21 541.284, 714.059 541.652, 711.663 542.744 C 709.786 543.599, 709 544.714, 709 546.524 C 709 549.838, 704.824 554, 701.5 554 C 697.963 554, 694 549.837, 694 546.122 C 694 544.412, 695.063 541.89, 696.506 540.175 C 697.995 538.406, 698.763 536.547, 698.399 535.598 C 697.96 534.455, 698.369 534, 699.834 534 C 700.96 534, 702.134 533.55, 703 532 Z M 729.667 533.667 C 728.209 535.125, 729.181 536.975, 732.989 539.991 C 737.366 543.458, 740.337 543.617, 740.797 540.409 C 741.006 538.953, 739.95 537.545, 737.244 535.669 C 733.434 533.028, 730.959 532.375, 729.667 533.667 Z " fill="url(#grad_127)" />
<path d="M 719.8 186.2 C 721.795 188.195, 721.179 190.095, 717.372 193.686 C 714.787 196.123, 712.991 197.021, 711.13 196.804 C 707.083 196.333, 707.264 193.338, 711.608 188.889 C 715.541 184.862, 717.74 184.14, 719.8 186.2 Z " fill="rgb(250,213,79)" />
<path d="M 738.11 150.143 C 739.546 152.41, 739.132 153.313, 734.369 158.305 C 731.2 161.628, 729.127 163.017, 727.653 162.805 C 724.135 162.302, 724.627 159.36, 729.028 154.585 C 733.643 149.579, 736.78 148.044, 738.11 150.143 Z M 731.964 154.536 C 729.234 157.225, 727 160.004, 727 160.712 C 727 163.161, 729.601 161.983, 733.927 157.574 C 737.023 154.42, 738.078 152.645, 737.599 151.398 C 737.031 149.918, 736.157 150.405, 731.964 154.536 Z " fill="rgb(240,253,243)" />
<path d="M 811.92 522.75 C 813.224 524.988, 813.23 525.702, 811.965 528.066 C 810.792 530.258, 806.101 530.701, 804.2 528.8 C 803.54 528.14, 803 526.655, 803 525.5 C 803 524.345, 803.54 522.86, 804.2 522.2 C 805.999 520.401, 810.749 520.74, 811.92 522.75 Z " fill="rgb(71,176,100)" />
<path d="M 899.8 303.2 C 901.765 305.165, 901.252 309.795, 898.933 311.036 C 896.45 312.365, 892 309.971, 892 307.306 C 892 303.359, 897.215 300.615, 899.8 303.2 Z " fill="rgb(73,174,99)" />
<path d="M 900.494 358.995 C 903.085 361.145, 897.961 371, 894.253 371 C 890.803 371, 890.494 368.561, 893.272 363.251 C 895.85 358.325, 898.093 357.002, 900.494 358.995 Z " fill="rgb(137,201,154)" />
<path d="M 906.8 420.2 C 907.46 420.86, 908 422.345, 908 423.5 C 908 426.388, 906.13 428, 902.779 428 C 899.209 428, 897.188 424.387, 898.932 421.126 C 900.204 418.75, 904.808 418.208, 906.8 420.2 Z " fill="rgb(105,187,123)" />
<path d="M 441.106 323.084 C 445.17 326.303, 445.997 328.403, 443.568 329.335 C 441.799 330.014, 433 323.452, 433 321.454 C 433 319.018, 436.984 319.819, 441.106 323.084 Z " fill="rgb(186,227,197)" />
<path d="M 456.209 359.706 C 459.395 362.844, 460.654 364.746, 459.987 365.413 C 459.321 366.079, 457.323 364.773, 453.994 361.494 C 451.247 358.789, 449 356.221, 449 355.788 C 449 353.845, 451.808 355.371, 456.209 359.706 Z " fill="rgb(75,161,98)" />
<path d="M 480.038 463.524 C 481.906 464.678, 480.94 465.883, 475.343 469.385 C 470.136 472.642, 468 473.135, 468 471.083 C 468 469.778, 478.991 462.876, 480.038 463.524 Z " fill="rgb(71,160,97)" />
<path d="M 484.633 256.11 C 485.438 256.778, 485.962 258.264, 485.798 259.413 C 485.528 261.302, 484.836 261.5, 478.5 261.5 C 476.167 261.5, 473.833 261.5, 471.5 261.5 C 471.5 260.5, 471.5 259.5, 471.5 258.5 C 471.5 255.544, 471.586 255.496, 477.334 255.198 C 480.873 255.014, 483.745 255.373, 484.633 256.11 Z " fill="rgb(75,173,104)" />
<path d="M 495.148 330 C 499.242 330, 500 330.296, 500 331.893 C 500 334.025, 498.14 335, 494.073 335 C 492.553 335, 490.478 335.92, 489.46 337.044 C 487.167 339.578, 483.5 339.268, 483.5 336.54 C 483.5 333.375, 489.511 330, 495.148 330 Z " fill="rgb(61,165,92)" />
<path d="M 508.472 407.976 C 510.347 409.533, 510.103 412.424, 507.587 418.447 C 506.153 421.879, 503.779 423.069, 502.498 420.997 C 501.45 419.3, 503.137 411.053, 505.004 408.746 C 506.555 406.831, 506.978 406.737, 508.472 407.976 Z " fill="rgb(59,167,90)" />
<path d="M 517.616 565 C 520.075 565, 519.096 567.326, 514.792 571.712 C 510.312 576.276, 509 576.909, 509 574.503 C 509 572.539, 515.835 565, 517.616 565 Z " fill="rgb(238,214,116)" />
<path d="M 525.907 366.228 C 526.967 369.034, 526.458 370, 523.92 370 C 521.451 370, 519.128 365.472, 520.76 363.84 C 522.292 362.308, 524.879 363.507, 525.907 366.228 Z " fill="rgb(192,229,205)" />
<path d="M 533.25 478.689 C 533.662 478.925, 534 479.766, 534 480.559 C 534 482.146, 531.45 482.537, 530.554 481.087 C 530.243 480.585, 528.194 479.871, 526 479.5 C 522.097 478.841, 520.184 477.483, 521.418 476.249 C 521.974 475.692, 531.415 477.639, 533.25 478.689 Z " fill="rgb(237,212,118)" />
<path d="M 556.375 274.709 C 556.765 275.099, 556.953 276.336, 556.792 277.459 C 556.54 279.22, 555.663 279.54, 550.409 279.794 C 543.972 280.104, 541.167 278.613, 542.357 275.513 C 542.791 274.382, 544.543 274, 549.302 274 C 552.803 274, 555.986 274.319, 556.375 274.709 Z " fill="rgb(67,169,94)" />
<path d="M 563.333 539.667 C 564.611 540.944, 563.987 543.936, 562.25 544.864 C 561.287 545.377, 557.912 546.12, 554.75 546.514 C 549.502 547.168, 549 547.063, 549 545.315 C 549 542.623, 550.934 541, 554.141 541 C 555.648 541, 557.16 540.55, 557.5 540 C 558.194 538.877, 562.308 538.642, 563.333 539.667 Z " fill="rgb(71,170,97)" />
<path d="M 558 357 C 558 358.667, 558 360.333, 558 362 C 556.823 362, 555.646 362, 554.469 362 C 552.153 362, 550.726 361.449, 550.323 360.399 C 549.429 358.069, 551.766 357.035, 558 357 Z " fill="rgb(233,208,119)" />
<path d="M 579.507 165.185 C 582.423 167.478, 582.579 171.274, 579.779 171.808 C 577.617 172.22, 569 166.387, 569 164.511 C 569 161.194, 574.916 161.573, 579.507 165.185 Z " fill="rgb(66,171,96)" />
<path d="M 573.422 249.332 C 575.677 250.197, 575.672 262.198, 573.416 264.07 C 572.252 265.036, 571.391 265.1, 570.166 264.31 C 568.904 263.496, 568.529 261.852, 568.622 257.532 C 568.752 251.435, 570.614 248.254, 573.422 249.332 Z " fill="rgb(245,213,92)" />
<path d="M 585.674 483.294 C 587.893 489.353, 586.826 493, 582.835 493 C 580.319 493, 579 489.917, 579 484.034 C 579 476.226, 582.926 475.791, 585.674 483.294 Z " fill="rgb(82,177,104)" />
<path d="M 612 518 C 607.599 518, 604 520.172, 604 522.829 C 604 524.549, 600.036 524.258, 599.357 522.487 C 599.037 521.655, 599.277 520.305, 599.888 519.487 C 600.259 518.992, 600.629 518.496, 601 518 C 601.917 517.513, 602.833 517.027, 603.75 516.54 C 608.089 514.237, 610.984 514.749, 612 518 Z " fill="rgb(83,175,92)" />
<path d="M 617.92 215.75 C 620.105 219.501, 618.454 223, 614.5 223 C 610.243 223, 608.695 219.099, 611.655 215.829 C 613.747 213.517, 616.598 213.481, 617.92 215.75 Z " fill="rgb(68,171,94)" />
<path d="M 622.513 605.011 C 624.371 606.553, 624.386 606.472, 621.169 612.5 C 619.058 616.455, 617.977 617.5, 616 617.5 C 612.47 617.5, 612.264 614.126, 615.483 609.027 C 618.445 604.335, 620.372 603.234, 622.513 605.011 Z " fill="rgb(111,192,135)" />
<path d="M 638.352 529.305 C 640.649 530.186, 640.526 530.518, 635.843 536.071 C 631.767 540.906, 628 542.524, 628 539.442 C 628 536.856, 636.455 528.577, 638.352 529.305 Z " fill="rgb(238,207,96)" />
<path d="M 638.903 209.053 C 642.988 210.811, 644 211.718, 644 213.623 C 644 216.618, 641.238 216.745, 635.25 214.027 C 632.23 212.656, 631 211.496, 631 210.018 C 631 206.895, 633.247 206.621, 638.903 209.053 Z " fill="rgb(179,220,191)" />
<path d="M 643 250 C 641.667 250.333, 640.333 250.667, 639 251 C 638.811 249.583, 638.623 248.167, 638.434 246.75 C 637.766 241.73, 639.658 238.271, 642.481 239.354 C 643.972 239.927, 644.153 240.818, 643 250 Z " fill="rgb(244,211,103)" />
<path d="M 667.457 641.345 C 669.374 642.081, 669.433 645.218, 667.607 649.349 C 666.841 651.082, 665.942 653.321, 665.61 654.324 C 665.258 655.389, 664.276 656.003, 663.253 655.799 C 661.117 655.374, 661.093 651.237, 663.195 645.769 C 664.966 641.16, 665.509 640.597, 667.457 641.345 Z " fill="rgb(245,214,96)" />
<path d="M 671.98 144.99 C 673.854 145.992, 674.056 146.864, 673.794 152.809 C 673.696 155.039, 673.598 157.27, 673.5 159.5 C 672.5 159.5, 671.5 159.5, 670.5 159.5 C 669.5 159.5, 668.5 159.5, 667.5 159.5 C 667.403 157.302, 667.305 155.105, 667.208 152.907 C 666.872 145.329, 668.273 143.005, 671.98 144.99 Z " fill="rgb(69,171,98)" />
<path d="M 669 529 C 672.875 528.674, 674 528.899, 674 529.289 C 674 529.526, 674 529.763, 674 530 C 673.167 530.189, 672.333 530.378, 671.5 530.566 C 670.042 530.897, 669 530.688, 669 529 Z " fill="rgb(197,188,119)" />
<path d="M 721.333 573.667 C 723.707 576.04, 716.854 585.925, 713.679 584.707 C 711.313 583.799, 711.587 581.581, 714.633 576.979 C 717.056 573.316, 719.684 572.018, 721.333 573.667 Z " fill="rgb(64,172,94)" />
<path d="M 716.969 110.25 C 718.54 114.158, 718.202 121.985, 716.433 122.664 C 714.074 123.569, 713.011 121.889, 712.336 116.191 C 711.507 109.193, 714.831 104.931, 716.969 110.25 Z " fill="rgb(184,226,198)" />
<path d="M 724.065 231.123 C 731.45 234.3, 730.622 236.417, 723 233.843 C 719.466 232.649, 717 231.238, 717 230.408 C 717 228.501, 718.269 228.63, 724.065 231.123 Z " fill="rgb(94,161,114)" />
<path d="M 748.669 214.009 C 750.312 220.315, 750.271 223, 748.535 223 C 746.484 223, 745.001 219.805, 744.298 213.869 C 743.752 209.261, 743.872 208.828, 745.599 209.156 C 746.896 209.403, 747.871 210.943, 748.669 214.009 Z " fill="rgb(181,222,193)" />
<path d="M 795.333 198.667 C 795.7 199.033, 796 200.158, 796 201.167 C 796 203.182, 792.344 203.697, 789.236 202.118 C 788.281 201.632, 786.154 200.836, 784.51 200.347 C 781.214 199.368, 779.948 196.341, 782.434 195.387 C 783.304 195.053, 785.543 195.504, 787.409 196.39 C 789.275 197.275, 791.672 198, 792.734 198 C 793.797 198, 794.967 198.3, 795.333 198.667 Z " fill="rgb(70,169,96)" />
<path d="M 797.75 517.806 C 799.259 519.708, 799.256 519.653, 797.965 522.066 C 795.913 525.899, 790 523.872, 790 519.335 C 790 515.297, 794.981 514.315, 797.75 517.806 Z " fill="rgb(75,175,104)" />
<path d="M 807.629 554.496 C 811.146 555.839, 812 556.644, 812 558.614 C 812 561.518, 809.718 562.656, 806.683 561.266 C 805.482 560.717, 803.15 559.859, 801.5 559.359 C 799.219 558.669, 798.5 557.859, 798.5 555.976 C 798.5 552.758, 801.714 552.237, 807.629 554.496 Z " fill="rgb(63,168,93)" />
<path d="M 807 278 C 804.333 275.667, 801.667 273.333, 799 271 C 799.25 270.252, 799.5 269.504, 799.75 268.756 C 800.162 267.522, 801.296 266.362, 802.269 266.179 C 804.686 265.724, 807 271.506, 807 278 Z " fill="rgb(239,215,119)" />
<path d="M 809.71 240 C 811.372 243.297, 811.318 244.539, 809.429 246.429 C 807.405 248.452, 805.125 248.423, 802.829 246.345 C 800.564 244.295, 800.469 240.674, 802.625 238.518 C 804.852 236.29, 808.192 236.989, 809.71 240 Z " fill="rgb(247,209,88)" />
<path d="M 836.918 246 C 839.002 246, 837.968 248.449, 834.297 252.208 C 830.581 256.014, 827 257.198, 827 254.62 C 827 253.109, 835.179 246, 836.918 246 Z " fill="rgb(177,219,192)" />
<path d="M 838.25 515.173 C 839.763 515.761, 841 516.563, 841 516.955 C 841 518.607, 839.634 518.745, 836.451 517.415 C 834.588 516.637, 831.98 516, 830.655 516 C 828.094 516, 825.295 513.554, 826.795 512.627 C 827.728 512.05, 833.542 513.343, 838.25 515.173 Z " fill="rgb(78,159,101)" />
<path d="M 837 450 C 838.333 447, 839.667 444, 841 441 C 842 441.333, 843 441.667, 844 442 C 845.017 447.749, 844.704 449.153, 843.465 450.392 C 841.819 452.038, 836.978 452.306, 836.993 450.75 C 836.995 450.5, 836.998 450.25, 837 450 Z " fill="rgb(227,204,129)" />
<path d="M 847.8 189.2 C 849.254 190.654, 849.489 189.619, 846.244 196.044 C 841.477 205.48, 836.572 202.277, 840.879 192.54 C 842.936 187.89, 845.333 186.733, 847.8 189.2 Z " fill="rgb(62,171,93)" />
<path d="M 849.139 472.5 C 851.194 475.827, 851.263 476.151, 850.393 478.418 C 849.225 481.463, 846.034 480.123, 842.978 475.304 C 839.593 469.966, 839.381 468.759, 841.519 466.984 C 843.302 465.504, 846.044 467.488, 849.139 472.5 Z " fill="rgb(69,174,98)" />
<path d="M 848 355 C 847.667 352.667, 847.333 350.333, 847 348 C 847.901 347.781, 848.802 347.563, 849.704 347.345 C 852.042 346.777, 853.055 347.385, 862 357 C 862 357.333, 862 357.667, 862 358 C 860.676 356.591, 859.351 355.182, 858.027 353.773 C 855.428 351.008, 853.715 349.885, 853.073 350.527 C 852.431 351.169, 853.459 353.323, 860 362 C 858.793 360.67, 857.586 359.341, 856.38 358.011 C 853.589 354.936, 852.214 354.134, 848 355 Z " fill="rgb(212,206,119)" />
<path d="M 854.364 485.309 C 856.157 485.997, 856.673 491.901, 855.085 493.55 C 854.581 494.073, 854.019 495.625, 853.835 497 C 853.583 498.876, 852.904 499.5, 851.109 499.5 C 847.835 499.5, 846.25 496.813, 847.755 493.815 C 848.394 492.542, 849.048 490.421, 849.208 489.102 C 849.553 486.271, 852.061 484.426, 854.364 485.309 Z " fill="rgb(71,172,97)" />
<path d="M 862 358 C 862 359.333, 862 360.667, 862 362 C 861.333 362, 860.667 362, 860 362 C 853.459 353.323, 852.431 351.169, 853.073 350.527 C 853.715 349.885, 855.428 351.008, 858.027 353.773 C 859.351 355.182, 860.676 356.591, 862 358 Z " fill="rgb(69,168,89)" />
<path d="M 866.823 255.987 C 869.623 256.015, 867.284 259.487, 862.618 262.228 C 857.502 265.234, 854.678 265.492, 854.296 262.989 C 854.073 261.52, 864.024 255.958, 866.823 255.987 Z " fill="rgb(244,213,95)" />
<path d="M 869.614 404.405 C 870.961 404.922, 871.109 405.973, 870.514 410.762 C 869.671 417.536, 869.449 418, 867.048 418 C 864.539 418, 863.845 415.65, 864.623 409.787 C 865.288 404.769, 866.672 403.277, 869.614 404.405 Z " fill="rgb(187,224,197)" />
<path d="M 865 326 C 865.348 325.503, 865.697 325.005, 866.045 324.508 C 868.322 321.257, 871.856 321.739, 877 326 C 876.5 326.156, 876 326.312, 875.5 326.469 C 872.514 327.401, 874.196 330.59, 880 335 C 879.258 334.499, 878.516 333.998, 877.773 333.497 C 876.303 332.504, 874.422 332.205, 872.233 332.616 C 867.825 333.443, 865 330.859, 865 326 Z " fill="rgb(244,223,128)" />
<path d="M 883.333 446.667 C 884.551 447.885, 884.023 449.918, 882.25 450.837 C 881.287 451.336, 878.432 452.044, 875.904 452.41 C 870.407 453.207, 868.112 451.527, 869.966 448.064 C 870.887 446.343, 872.034 446, 876.869 446 C 880.057 446, 882.967 446.3, 883.333 446.667 Z " fill="rgb(245,213,92)" />
<path d="M 880 335 C 874.196 330.59, 872.514 327.401, 875.5 326.469 C 876 326.312, 876.5 326.156, 877 326 C 877.25 325.997, 877.5 325.993, 877.75 325.99 C 878.162 325.984, 880.483 327.501, 882.906 329.361 C 886.173 331.868, 887.139 333.195, 886.641 334.493 C 886.125 335.838, 885.277 336.1, 880 335 Z " fill="rgb(66,170,93)" />
<path d="M 898.375 226.709 C 898.765 227.099, 898.953 228.336, 898.792 229.459 C 898.536 231.249, 897.667 231.536, 891.736 231.796 C 886.346 232.032, 884.851 231.776, 884.374 230.533 C 883.249 227.6, 885.924 226, 891.956 226 C 895.097 226, 897.986 226.319, 898.375 226.709 Z " fill="rgb(65,169,92)" />
<path d="M 903.486 567.684 C 907.305 571.842, 907.833 574.064, 905.47 576.025 C 903.357 577.778, 899.935 576.093, 896.521 571.616 C 893.245 567.321, 893.51 564.616, 897.25 564.184 C 899.355 563.941, 900.786 564.745, 903.486 567.684 Z " fill="rgb(246,214,89)" />
<path d="M 929.082 418.046 C 931.065 422.936, 931.472 426, 930.139 426 C 929.3 426, 925 415.814, 925 413.828 C 925 411.453, 927.425 413.959, 929.082 418.046 Z " fill="rgb(120,169,132)" />
<path d="M 943.816 462.005 C 947.897 464.523, 948.002 468.361, 944 468.732 C 940.315 469.073, 932.5 464.912, 932.5 462.609 C 932.5 458.324, 937.426 458.061, 943.816 462.005 Z " fill="rgb(62,164,89)" />
<path d="M 946.208 503.703 C 952.517 509.864, 950.876 512.678, 943.733 507.947 C 938.333 504.37, 936.599 502.458, 937.473 501.044 C 938.767 498.949, 942.505 500.087, 946.208 503.703 Z " fill="rgb(67,172,97)" />
<path d="M 946.052 363.699 C 947.207 369.531, 946.782 371.46, 944.26 371.818 C 942.587 372.056, 941.732 371.422, 940.885 369.318 C 940.261 367.768, 939.265 365.458, 938.672 364.185 C 937.411 361.481, 938.699 358.7, 941.463 358.156 C 943.878 357.682, 945.168 359.239, 946.052 363.699 Z " fill="rgb(246,213,90)" />
<path d="M 960.75 325.979 C 966.025 327.342, 966.57 329.517, 961.393 328.546 C 956.176 327.567, 953 326.209, 953 324.957 C 953 324.357, 953.787 324.094, 954.75 324.373 C 955.713 324.652, 958.412 325.375, 960.75 325.979 Z " fill="rgb(156,195,168)" />
<path d="M 971.894 287 C 975.281 287, 974.349 289.735, 969.85 292.994 C 962.335 298.437, 958.712 295.772, 965.894 290.084 C 968.036 288.388, 970.736 287, 971.894 287 Z " fill="rgb(172,219,185)" />
<path d="M 536.071 442.929 C 537.578 441.422, 539.178 440.932, 541.94 441.132 C 544.473 441.314, 546.304 440.839, 547.44 439.703 C 550.806 436.336, 555.485 438.548, 554.827 443.195 C 554.599 444.804, 553.519 445.789, 551.25 446.457 C 549.213 447.056, 548 448.056, 548 449.134 C 548 451.254, 543.415 455, 540.82 455 C 538.083 455, 534 450.537, 534 447.545 C 534 446.145, 534.932 444.068, 536.071 442.929 Z " fill="url(#radgrad_271)" />
<path d="M 607.859 575 C 608.248 573.625, 609.525 572.072, 610.698 571.549 C 611.906 571.011, 613.089 569.306, 613.427 567.615 C 614.802 560.739, 621.909 558.527, 625.984 563.707 C 630.142 568.993, 625.722 575.691, 618.806 574.585 C 617.557 574.385, 616.309 574.186, 615.06 573.986 C 614.521 575.841, 613.981 577.696, 613.442 579.551 C 612.063 584.296, 611.506 585.071, 609.662 584.808 C 607.958 584.565, 607.463 583.759, 607.327 581 C 607.231 579.075, 607.471 576.375, 607.859 575 Z " fill="url(#grad_272)" />
<path d="M 680.752 210 C 681.876 207.749, 683.214 206.5, 684.5 206.5 C 686.228 206.5, 686.506 207.181, 686.542 211.5 C 686.575 215.383, 686.91 216.411, 688.042 216.101 C 693 214.743, 694.916 214.916, 696.901 216.901 C 699.8 219.8, 699.735 225.372, 696.777 227.443 C 691.903 230.858, 686 228.115, 686 222.435 C 686 219.315, 685.82 219.095, 684.132 220.149 C 679.332 223.148, 677.272 216.965, 680.752 210 Z " fill="rgb(91,180,112)" />
<path d="M 717.66 618.3 C 720.556 617.189, 726.962 627.051, 725.618 630.552 C 724.535 633.377, 720.715 631.785, 718.293 627.5 C 715.611 622.753, 715.365 619.181, 717.66 618.3 Z " fill="rgb(171,213,181)" />
<path d="M 537.908 339.792 C 538.601 334.956, 539.501 333.168, 540.659 334.325 C 541.392 335.059, 539.359 348.5, 538.514 348.5 C 537.51 348.5, 537.232 344.506, 537.908 339.792 Z " fill="url(#radgrad_275)" />
<path d="M 633.155 386.5 C 634.914 383.284, 637.139 382, 640.952 382 C 644.24 382, 645.866 383.345, 661.5 399 C 670.838 408.35, 678.933 416.02, 679.489 416.044 C 680.045 416.068, 699.175 397.163, 722 374.031 C 762.071 333.423, 763.629 331.975, 767.25 331.987 C 773.149 332.007, 777.235 337.486, 775.285 342.76 C 774.834 343.977, 754.027 365.453, 729.047 390.486 C 713.907 405.657, 698.767 420.829, 683.628 436 C 682.141 436, 680.654 436, 679.167 436 C 674.71 436, 674.691 435.985, 654.768 416.25 C 631.886 393.583, 630.4 391.537, 633.155 386.5 Z " fill="rgb(252,254,254)" />
<path d="M 731.964 154.536 C 736.157 150.405, 737.031 149.918, 737.599 151.398 C 738.078 152.645, 737.023 154.42, 733.927 157.574 C 729.601 161.983, 727 163.161, 727 160.712 C 727 160.004, 729.234 157.225, 731.964 154.536 Z " fill="rgb(73,164,99)" />
<path d="M 729.667 533.667 C 730.959 532.375, 733.434 533.028, 737.244 535.669 C 739.95 537.545, 741.006 538.953, 740.797 540.409 C 740.337 543.617, 737.366 543.458, 732.989 539.991 C 729.181 536.975, 728.209 535.125, 729.667 533.667 Z " fill="rgb(65,171,98)" />
</svg>
